<?xml version="1.0" standalone="no"?>
<!DOCTYPE svg PUBLIC "-//W3C//DTD SVG 20010904//EN"
 "http://www.w3.org/TR/2001/REC-SVG-20010904/DTD/svg10.dtd">
<svg version="1.0" xmlns="http://www.w3.org/2000/svg"
 width="500.000000pt" height="500.000000pt" viewBox="0 0 500.000000 500.000000"
 preserveAspectRatio="xMidYMid meet">
<metadata>
Created by potrace 1.16, written by Peter Selinger 2001-2019
</metadata>
<g transform="translate(0.000000,500.000000) scale(0.100000,-0.100000)"
fill="#000000" stroke="none">
<path d="M2352 3597 c-44 -96 -50 -123 -30 -129 10 -4 13 -115 13 -487 0 -457
1 -483 18 -496 24 -18 18 -49 -11 -53 -22 -3 -22 -3 -22 347 0 351 0 351 -56
387 -64 41 -48 48 -178 -78 -89 -88 -89 -88 -83 -134 4 -39 2 -47 -19 -61 -25
-16 -23 -39 2 -29 16 6 19 -10 4 -19 -6 -4 -10 -92 -11 -228 -1 -122 -4 -233
-8 -246 -5 -20 -36 -34 -222 -100 -210 -74 -258 -96 -242 -111 4 -4 71 -3 148
1 410 25 539 29 845 29 192 0 447 -7 598 -16 238 -14 286 -14 271 1 -3 2 -97
15 -210 27 -185 21 -249 23 -684 22 -429 0 -500 -3 -664 -22 -210 -25 -214
-25 -207 -13 4 5 25 12 49 16 54 9 389 73 442 85 22 5 42 5 45 0 3 -4 75 -4
160 1 85 5 236 7 335 5 141 -4 169 -3 130 5 -64 14 -389 17 -520 5 -55 -4 -97
-5 -93 -1 11 12 202 44 302 51 102 7 234 -10 395 -52 51 -14 175 -40 275 -59
99 -20 210 -43 246 -51 81 -20 98 -22 102 -9 3 9 -108 51 -334 126 -98 32 -98
32 -100 353 -2 176 -2 367 0 423 2 60 -1 104 -7 107 -6 4 -8 13 -5 20 3 8 -27
38 -76 75 -77 58 -84 62 -112 52 -34 -12 -48 -7 -48 17 0 10 -74 77 -176 162
-97 79 -183 150 -190 157 -7 7 -16 13 -21 13 -4 0 -27 -42 -51 -93z m248 -148
c91 -72 171 -133 178 -136 9 -4 12 -104 12 -453 0 -259 -4 -451 -9 -454 -5 -4
-16 -3 -25 0 -12 5 -16 21 -16 69 0 62 0 62 -52 69 -28 4 -59 11 -67 16 -9 4
-32 10 -51 12 -35 3 -35 3 -32 -44 6 -75 0 -83 -60 -83 -53 0 -53 0 -53 568 0
312 2 567 5 567 3 0 79 -59 170 -131z m363 -230 c31 -28 57 -55 57 -60 0 -16
-24 -10 -60 15 -20 13 -44 25 -55 27 -21 4 -31 30 -21 55 8 22 18 18 79 -37z
m-21 -59 c8 -26 -8 -785 -17 -785 -6 0 -11 141 -13 398 -2 338 0 397 12 397 8
0 16 -4 18 -10z m58 -422 c0 -299 -3 -379 -12 -376 -10 4 -14 93 -16 393 -2
345 -1 386 13 375 13 -11 15 -66 15 -392z m-820 262 c0 -5 -5 -10 -11 -10 -5
0 -7 5 -4 10 3 6 8 10 11 10 2 0 4 -4 4 -10z m-75 -56 c-22 -19 -53 -45 -70
-57 -48 -34 -10 9 48 55 61 48 76 49 22 2z"/>
<path d="M2534 3407 c-9 -25 4 -67 22 -67 8 0 17 -7 21 -16 3 -8 15 -20 27
-25 38 -18 118 -69 127 -82 4 -5 10 -4 14 2 8 14 -41 81 -59 81 -8 0 -16 7
-20 15 -3 8 -11 15 -17 15 -13 0 -28 13 -79 64 -25 26 -30 27 -36 13z"/>
<path d="M2530 3286 c0 -24 11 -46 24 -46 6 0 51 -27 98 -60 96 -66 127 -65
69 2 -9 10 -20 18 -25 18 -5 0 -27 15 -50 33 -23 19 -49 36 -58 40 -10 3 -18
11 -18 17 0 5 -9 10 -20 10 -11 0 -20 -6 -20 -14z"/>
<path d="M2534 3186 c-3 -8 -1 -24 5 -35 7 -13 8 -22 1 -26 -18 -11 -11 -35
13 -44 12 -5 49 -24 82 -43 34 -19 71 -37 83 -40 19 -5 22 -2 22 26 0 31 -23
76 -39 76 -11 0 -129 79 -136 91 -9 14 -25 11 -31 -5z m196 -146 c0 -5 -2 -10
-4 -10 -3 0 -8 5 -11 10 -3 6 -1 10 4 10 6 0 11 -4 11 -10z"/>
<path d="M2537 3042 c-2 -4 -3 -26 -3 -50 2 -43 2 -43 89 -83 99 -45 117 -47
117 -18 0 11 -4 18 -9 14 -5 -3 -12 -1 -16 5 -3 5 1 10 9 10 20 0 21 14 2 29
-26 22 -186 100 -189 93z"/>
<path d="M2533 2861 c1 -48 1 -49 41 -61 23 -6 60 -20 83 -31 60 -27 77 -25
69 6 -4 16 -2 25 5 25 20 0 -20 37 -54 50 -52 20 -80 32 -109 46 -14 8 -28 14
-31 14 -3 0 -4 -22 -4 -49z m57 -21 c0 -5 -2 -10 -4 -10 -3 0 -8 5 -11 10 -3
6 -1 10 4 10 6 0 11 -4 11 -10z"/>
<path d="M2534 2765 c-4 -8 0 -22 7 -31 10 -13 10 -17 0 -24 -24 -14 -5 -34
45 -46 27 -7 68 -18 91 -25 44 -14 65 -7 45 13 -16 16 -15 28 3 28 8 0 15 4
15 9 0 15 -23 27 -85 45 -33 10 -72 24 -88 32 -24 14 -28 14 -33 -1z m56 -55
c0 -5 -2 -10 -4 -10 -3 0 -8 5 -11 10 -3 6 -1 10 4 10 6 0 11 -4 11 -10z m54
-21 c-6 -11 -24 -2 -24 11 0 5 7 7 15 4 8 -4 12 -10 9 -15z"/>
<path d="M2536 2643 c-12 -13 -6 -33 12 -33 15 0 67 -12 150 -36 17 -5 22 -2
22 14 0 16 -9 21 -47 27 -27 4 -55 10 -63 15 -25 12 -67 20 -74 13z"/>
<path d="M2205 2261 c-27 -4 103 -7 290 -6 187 0 318 3 290 6 -62 9 -511 8
-580 0z"/>
<path d="M1953 1952 c-7 -4 -13 -36 -15 -72 -3 -65 -3 -65 -38 3 -29 58 -38
67 -58 65 -23 -3 -24 -4 -23 -127 0 -124 8 -158 33 -133 7 7 11 34 9 66 -1 30
2 57 8 60 6 4 24 -21 43 -59 26 -52 37 -65 55 -65 24 0 24 0 21 132 -3 127 -8
147 -35 130z"/>
<path d="M2623 1953 c-9 -3 -13 -34 -13 -107 0 -89 3 -107 21 -130 16 -21 29
-26 64 -26 35 0 48 5 64 26 18 23 21 41 21 129 0 73 -4 104 -12 107 -32 12
-38 -4 -38 -97 0 -105 -5 -125 -29 -125 -34 0 -41 22 -41 121 0 97 -6 113 -37
102z"/>
<path d="M3407 1953 c-11 -10 -8 -261 2 -267 24 -15 40 7 43 57 3 48 5 52 30
55 22 3 29 -2 34 -22 3 -14 3 -37 0 -50 -7 -28 18 -56 35 -39 6 6 10 62 10
133 0 71 -4 127 -10 133 -17 17 -42 -11 -35 -39 3 -13 3 -36 0 -50 -5 -20 -12
-25 -34 -22 -25 3 -27 7 -30 53 -4 53 -24 80 -45 58z"/>
<path d="M1431 1924 c-17 -22 -21 -41 -21 -104 0 -100 19 -130 85 -130 35 0
48 5 64 26 26 32 27 50 4 58 -17 7 -43 -16 -43 -37 0 -4 -12 -7 -27 -5 -28 3
-28 3 -28 82 0 65 3 81 18 90 15 9 22 6 42 -18 15 -19 29 -27 39 -23 22 9 20
29 -5 61 -16 21 -29 26 -64 26 -35 0 -48 -5 -64 -26z"/>
<path d="M1632 1927 c-19 -20 -22 -35 -22 -108 1 -90 9 -112 51 -128 36 -13
77 -2 100 28 18 23 20 37 17 109 -3 74 -6 86 -27 103 -33 27 -92 25 -119 -4z
m87 -31 c7 -9 11 -41 9 -82 -3 -70 -18 -94 -52 -81 -13 5 -16 21 -16 85 0 43
3 82 7 85 11 12 40 8 52 -7z"/>
<path d="M2047 1932 c-28 -30 -22 -77 13 -104 78 -60 83 -65 77 -81 -9 -25
-44 -20 -63 8 -17 26 -43 34 -45 13 -6 -64 52 -100 118 -73 66 28 53 100 -25
144 -33 18 -42 28 -40 45 5 33 45 34 58 1 7 -17 16 -25 27 -23 26 5 27 31 3
61 -17 22 -30 27 -64 27 -29 0 -48 -6 -59 -18z"/>
<path d="M2210 1931 c0 -14 8 -21 28 -23 27 -3 27 -3 30 -110 1 -60 7 -109 12
-109 34 -6 35 -3 40 106 5 110 5 110 35 115 18 3 30 11 30 20 0 12 -18 16 -87
18 -82 3 -88 1 -88 -17z"/>
<path d="M2417 1943 c-11 -11 -8 -253 3 -254 32 -5 35 -2 40 51 6 71 26 72 52
3 20 -52 43 -72 61 -54 7 7 3 27 -11 58 -20 48 -20 48 -1 79 24 40 24 65 -2
98 -18 23 -28 26 -78 26 -32 0 -61 -3 -64 -7z m103 -48 c20 -25 8 -50 -25 -50
-31 0 -43 20 -31 51 7 18 40 18 56 -1z"/>
<path d="M2810 1931 c0 -14 8 -21 28 -23 27 -3 27 -3 32 -113 5 -109 6 -112
40 -106 6 0 10 45 10 111 0 110 0 110 30 110 23 0 30 4 30 20 0 18 -7 20 -85
20 -77 0 -85 -2 -85 -19z"/>
<path d="M3010 1820 c0 -130 0 -130 80 -130 73 0 80 2 80 19 0 17 -8 20 -52
23 -51 3 -53 4 -53 33 0 27 4 31 35 35 22 3 35 10 35 20 0 10 -13 17 -35 20
-31 4 -35 8 -35 35 0 29 2 30 53 33 44 3 52 6 52 23 0 17 -7 19 -80 19 -80 0
-80 0 -80 -130z"/>
<path d="M3220 1930 c-17 -17 -20 -33 -20 -110 0 -77 3 -93 20 -110 42 -42
140 -15 140 39 0 33 -22 36 -45 8 -42 -53 -75 -25 -75 63 0 28 5 60 10 71 15
27 48 24 62 -6 14 -31 42 -29 46 2 8 55 -94 87 -138 43z"/>
</g>
</svg>
